<svg xmlns="http://www.w3.org/2000/svg" width="26" height="26" viewBox="0 0 26 26" fill="none">
  <rect width="26" height="26" rx="7" fill="#e5251b"/>
  <path d="M18.5 10.2a1.6 1.6 0 0 0-1.12-1.12C16.4 8.8 13 8.8 13 8.8s-3.4 0-4.38.3A1.6 1.6 0 0 0 7.5 10.2 17 17 0 0 0 7.2 13a17 17 0 0 0 .3 2.8 1.6 1.6 0 0 0 1.12 1.12C9.6 17.2 13 17.2 13 17.2s3.4 0 4.38-.3a1.6 1.6 0 0 0 1.12-1.12A17 17 0 0 0 18.8 13a17 17 0 0 0-.3-2.8z" fill="white"/>
  <polygon points="11.2,16 16,13 11.2,10" fill="#e5251b"/>
</svg>
