<svg xmlns="http://www.w3.org/2000/svg" xmlns:xlink="http://www.w3.org/1999/xlink" viewBox="145 615 1262 270" preserveAspectRatio="xMidYMid meet" version="1.0"><defs><g/><clipPath id="f61ca8b1f8"><path d="M 150 622.527344 L 405 622.527344 L 405 877.527344 L 150 877.527344 Z M 150 622.527344 " clip-rule="nonzero"/></clipPath></defs><g clip-path="url(#f61ca8b1f8)"><path fill="#e5251b" d="M 218.652344 622.527344 L 336.347656 622.527344 C 337.46875 622.527344 338.59375 622.554688 339.714844 622.609375 C 340.835938 622.664062 341.957031 622.746094 343.074219 622.859375 C 344.195312 622.96875 345.308594 623.105469 346.417969 623.269531 C 347.53125 623.433594 348.636719 623.628906 349.738281 623.847656 C 350.84375 624.066406 351.9375 624.3125 353.027344 624.585938 C 354.117188 624.859375 355.199219 625.15625 356.273438 625.484375 C 357.351562 625.808594 358.417969 626.164062 359.476562 626.539062 C 360.53125 626.917969 361.582031 627.324219 362.617188 627.753906 C 363.65625 628.183594 364.683594 628.640625 365.699219 629.117188 C 366.714844 629.597656 367.71875 630.105469 368.710938 630.632812 C 369.699219 631.164062 370.675781 631.71875 371.640625 632.296875 C 372.605469 632.871094 373.554688 633.472656 374.488281 634.097656 C 375.421875 634.722656 376.339844 635.367188 377.242188 636.039062 C 378.144531 636.707031 379.03125 637.398438 379.898438 638.109375 C 380.769531 638.824219 381.617188 639.558594 382.453125 640.3125 C 383.285156 641.066406 384.097656 641.839844 384.890625 642.636719 C 385.6875 643.429688 386.460938 644.242188 387.214844 645.078125 C 387.96875 645.910156 388.703125 646.757812 389.417969 647.628906 C 390.128906 648.496094 390.820312 649.382812 391.488281 650.285156 C 392.160156 651.1875 392.804688 652.105469 393.429688 653.039062 C 394.054688 653.972656 394.65625 654.921875 395.234375 655.886719 C 395.808594 656.851562 396.363281 657.828125 396.894531 658.816406 C 397.421875 659.808594 397.929688 660.8125 398.410156 661.828125 C 398.890625 662.84375 399.34375 663.871094 399.773438 664.910156 C 400.203125 665.945312 400.609375 666.996094 400.988281 668.050781 C 401.367188 669.109375 401.71875 670.175781 402.042969 671.253906 C 402.371094 672.328125 402.667969 673.410156 402.941406 674.5 C 403.214844 675.589844 403.460938 676.6875 403.679688 677.789062 C 403.898438 678.890625 404.09375 679.996094 404.257812 681.109375 C 404.421875 682.21875 404.558594 683.335938 404.667969 684.453125 C 404.78125 685.570312 404.863281 686.691406 404.917969 687.8125 C 404.972656 688.933594 405 690.058594 405 691.179688 L 405 808.875 C 405 809.996094 404.972656 811.121094 404.917969 812.242188 C 404.863281 813.363281 404.78125 814.484375 404.667969 815.601562 C 404.558594 816.722656 404.421875 817.835938 404.257812 818.949219 C 404.09375 820.058594 403.898438 821.164062 403.679688 822.265625 C 403.460938 823.371094 403.214844 824.464844 402.941406 825.554688 C 402.667969 826.644531 402.371094 827.726562 402.042969 828.804688 C 401.71875 829.878906 401.367188 830.945312 400.988281 832.003906 C 400.609375 833.058594 400.203125 834.109375 399.773438 835.144531 C 399.34375 836.183594 398.890625 837.210938 398.410156 838.226562 C 397.929688 839.242188 397.421875 840.246094 396.894531 841.238281 C 396.363281 842.226562 395.808594 843.207031 395.234375 844.167969 C 394.65625 845.132812 394.054688 846.082031 393.429688 847.015625 C 392.804688 847.949219 392.160156 848.867188 391.488281 849.769531 C 390.820312 850.671875 390.128906 851.558594 389.417969 852.425781 C 388.703125 853.296875 387.96875 854.144531 387.214844 854.980469 C 386.460938 855.8125 385.6875 856.625 384.890625 857.417969 C 384.097656 858.214844 383.285156 858.988281 382.453125 859.742188 C 381.617188 860.496094 380.769531 861.230469 379.898438 861.945312 C 379.03125 862.65625 378.144531 863.347656 377.242188 864.015625 C 376.339844 864.6875 375.421875 865.332031 374.488281 865.957031 C 373.554688 866.582031 372.605469 867.183594 371.640625 867.761719 C 370.675781 868.335938 369.699219 868.890625 368.710938 869.421875 C 367.71875 869.949219 366.714844 870.457031 365.699219 870.9375 C 364.683594 871.417969 363.65625 871.871094 362.617188 872.300781 C 361.582031 872.730469 360.53125 873.136719 359.476562 873.515625 C 358.417969 873.894531 357.351562 874.246094 356.273438 874.570312 C 355.199219 874.898438 354.117188 875.195312 353.027344 875.46875 C 351.9375 875.742188 350.84375 875.988281 349.738281 876.207031 C 348.636719 876.425781 347.53125 876.621094 346.417969 876.785156 C 345.308594 876.949219 344.195312 877.085938 343.074219 877.195312 C 341.957031 877.308594 340.835938 877.390625 339.714844 877.445312 C 338.59375 877.5 337.46875 877.527344 336.347656 877.527344 L 218.652344 877.527344 C 217.53125 877.527344 216.40625 877.5 215.285156 877.445312 C 214.164062 877.390625 213.042969 877.308594 211.925781 877.195312 C 210.804688 877.085938 209.691406 876.949219 208.582031 876.785156 C 207.46875 876.621094 206.363281 876.425781 205.261719 876.207031 C 204.15625 875.988281 203.0625 875.742188 201.972656 875.46875 C 200.882812 875.195312 199.800781 874.898438 198.726562 874.570312 C 197.648438 874.246094 196.582031 873.894531 195.523438 873.515625 C 194.46875 873.136719 193.417969 872.730469 192.382812 872.300781 C 191.34375 871.871094 190.316406 871.417969 189.300781 870.9375 C 188.285156 870.457031 187.28125 869.949219 186.289062 869.421875 C 185.300781 868.890625 184.324219 868.335938 183.359375 867.761719 C 182.394531 867.183594 181.445312 866.582031 180.511719 865.957031 C 179.578125 865.332031 178.660156 864.6875 177.757812 864.015625 C 176.855469 863.347656 175.96875 862.65625 175.101562 861.945312 C 174.230469 861.230469 173.382812 860.496094 172.546875 859.742188 C 171.714844 858.988281 170.902344 858.214844 170.109375 857.417969 C 169.3125 856.625 168.539062 855.8125 167.785156 854.980469 C 167.03125 854.144531 166.296875 853.296875 165.582031 852.425781 C 164.871094 851.558594 164.179688 850.671875 163.511719 849.769531 C 162.839844 848.867188 162.195312 847.949219 161.570312 847.015625 C 160.945312 846.082031 160.34375 845.132812 159.765625 844.167969 C 159.191406 843.207031 158.636719 842.226562 158.105469 841.238281 C 157.578125 840.246094 157.070312 839.242188 156.589844 838.226562 C 156.109375 837.210938 155.65625 836.183594 155.226562 835.144531 C 154.796875 834.109375 154.390625 833.058594 154.011719 832.003906 C 153.632812 830.945312 153.28125 829.878906 152.957031 828.804688 C 152.628906 827.726562 152.332031 826.644531 152.058594 825.554688 C 151.785156 824.464844 151.539062 823.371094 151.320312 822.265625 C 151.101562 821.164062 150.90625 820.058594 150.742188 818.949219 C 150.578125 817.835938 150.441406 816.722656 150.332031 815.601562 C 150.21875 814.484375 150.136719 813.363281 150.082031 812.242188 C 150.027344 811.121094 150 809.996094 150 808.875 L 150 691.179688 C 150 690.058594 150.027344 688.933594 150.082031 687.8125 C 150.136719 686.691406 150.21875 685.570312 150.332031 684.453125 C 150.441406 683.335938 150.578125 682.21875 150.742188 681.109375 C 150.90625 679.996094 151.101562 678.890625 151.320312 677.789062 C 151.539062 676.6875 151.785156 675.589844 152.058594 674.5 C 152.332031 673.410156 152.628906 672.328125 152.957031 671.253906 C 153.28125 670.175781 153.632812 669.109375 154.011719 668.050781 C 154.390625 666.996094 154.796875 665.945312 155.226562 664.910156 C 155.65625 663.871094 156.109375 662.84375 156.589844 661.828125 C 157.070312 660.8125 157.578125 659.808594 158.105469 658.816406 C 158.636719 657.828125 159.191406 656.851562 159.765625 655.886719 C 160.34375 654.921875 160.945312 653.972656 161.570312 653.039062 C 162.195312 652.105469 162.839844 651.1875 163.511719 650.285156 C 164.179688 649.382812 164.871094 648.496094 165.582031 647.628906 C 166.296875 646.757812 167.03125 645.910156 167.785156 645.078125 C 168.539062 644.242188 169.3125 643.429688 170.109375 642.636719 C 170.902344 641.839844 171.714844 641.066406 172.546875 640.3125 C 173.382812 639.558594 174.230469 638.824219 175.101562 638.109375 C 175.96875 637.398438 176.855469 636.707031 177.757812 636.039062 C 178.660156 635.367188 179.578125 634.722656 180.511719 634.097656 C 181.445312 633.472656 182.394531 632.871094 183.359375 632.296875 C 184.324219 631.71875 185.300781 631.164062 186.289062 630.632812 C 187.28125 630.105469 188.285156 629.597656 189.300781 629.117188 C 190.316406 628.640625 191.34375 628.183594 192.382812 627.753906 C 193.417969 627.324219 194.46875 626.917969 195.523438 626.539062 C 196.582031 626.164062 197.648438 625.808594 198.726562 625.484375 C 199.800781 625.15625 200.882812 624.859375 201.972656 624.585938 C 203.0625 624.3125 204.15625 624.066406 205.261719 623.847656 C 206.363281 623.628906 207.46875 623.433594 208.582031 623.269531 C 209.691406 623.105469 210.804688 622.96875 211.925781 622.859375 C 213.042969 622.746094 214.164062 622.664062 215.285156 622.609375 C 216.40625 622.554688 217.53125 622.527344 218.652344 622.527344 Z M 218.652344 622.527344 " fill-opacity="1" fill-rule="nonzero"/></g><path fill="#ffffff" d="M 331.441406 722.566406 C 331.082031 721.253906 330.558594 720.007812 329.875 718.828125 C 329.191406 717.652344 328.367188 716.582031 327.40625 715.617188 C 326.441406 714.65625 325.371094 713.832031 324.195312 713.148438 C 323.015625 712.464844 321.769531 711.941406 320.457031 711.582031 C 310.847656 708.835938 277.5 708.835938 277.5 708.835938 C 277.5 708.835938 244.152344 708.835938 234.542969 711.777344 C 233.242188 712.128906 232.003906 712.640625 230.835938 713.308594 C 229.664062 713.980469 228.597656 714.789062 227.636719 715.730469 C 226.675781 716.675781 225.847656 717.726562 225.15625 718.886719 C 224.464844 720.042969 223.933594 721.269531 223.558594 722.566406 C 221.816406 731.636719 220.835938 740.792969 220.617188 750.027344 C 220.835938 759.261719 221.816406 768.417969 223.558594 777.488281 C 223.917969 778.800781 224.441406 780.046875 225.125 781.226562 C 225.808594 782.402344 226.632812 783.472656 227.59375 784.4375 C 228.558594 785.398438 229.628906 786.222656 230.804688 786.90625 C 231.984375 787.589844 233.230469 788.113281 234.542969 788.472656 C 244.152344 791.21875 277.5 791.21875 277.5 791.21875 C 277.5 791.21875 310.847656 791.21875 320.457031 788.277344 C 321.769531 787.917969 323.015625 787.394531 324.195312 786.710938 C 325.371094 786.027344 326.441406 785.203125 327.40625 784.238281 C 328.367188 783.277344 329.191406 782.207031 329.875 781.027344 C 330.558594 779.851562 331.082031 778.605469 331.441406 777.292969 C 333.171875 768.285156 334.152344 759.195312 334.382812 750.027344 C 334.164062 740.792969 333.183594 731.636719 331.441406 722.566406 Z M 331.441406 722.566406 " fill-opacity="1" fill-rule="nonzero"/><path fill="#e5251b" d="M 259.847656 779.449219 L 306.921875 750.027344 L 259.847656 720.605469 Z M 259.847656 779.449219 " fill-opacity="1" fill-rule="nonzero"/><g fill="#000000" fill-opacity="1"><g transform="translate(442.091803, 812.999958)"><g><path d="M 26.734375 42.265625 L 5.90625 42.265625 L 5.90625 18.1875 L 26.484375 18.1875 C 30.828125 18.1875 34.378906 17.484375 37.140625 16.078125 C 39.910156 14.671875 42.257812 12.519531 44.1875 9.625 C 46.113281 6.738281 47.921875 3.007812 49.609375 -1.5625 L 51.0625 -5.78125 L 3.609375 -123.78125 L 34.3125 -123.78125 L 63.453125 -48.890625 L 66.59375 -36.125 L 69.84375 -48.765625 L 98.5 -123.671875 L 129.5625 -123.78125 L 81.28125 -2.765625 C 77.664062 6.460938 74.050781 14.023438 70.4375 19.921875 C 66.832031 25.828125 62.960938 30.40625 58.828125 33.65625 C 54.691406 36.90625 50.035156 39.148438 44.859375 40.390625 C 39.679688 41.640625 33.640625 42.265625 26.734375 42.265625 Z M 26.734375 42.265625 "/></g></g></g><g fill="#000000" fill-opacity="1"><g transform="translate(558.437294, 812.999958)"><g><path d="M 93.203125 0 L 68.03125 0 C 64.34375 0 60.550781 -0.335938 56.65625 -1.015625 C 52.757812 -1.703125 49.046875 -2.96875 45.515625 -4.8125 C 41.984375 -6.664062 38.832031 -9.335938 36.0625 -12.828125 C 33.289062 -16.316406 31.082031 -20.847656 29.4375 -26.421875 C 27.789062 -32.003906 26.96875 -38.890625 26.96875 -47.078125 L 26.96875 -98.734375 L 1.328125 -98.734375 L 1.328125 -123.78125 L 26.96875 -123.78125 L 26.96875 -160.03125 L 56.109375 -160.265625 L 56.109375 -123.78125 L 93.203125 -123.78125 L 93.203125 -98.734375 L 56.109375 -98.734375 L 56.109375 -45.75 C 56.109375 -39.976562 56.953125 -35.523438 58.640625 -32.390625 C 60.328125 -29.265625 62.554688 -27.117188 65.328125 -25.953125 C 68.097656 -24.785156 71.007812 -24.203125 74.0625 -24.203125 L 93.203125 -24.203125 Z M 93.203125 0 "/></g></g></g><g fill="#000000" fill-opacity="1"><g transform="translate(643.83643, 812.999958)"><g><path d="M 73.8125 46.96875 C 63.21875 46.96875 54.144531 45.640625 46.59375 42.984375 C 39.050781 40.335938 32.867188 36.765625 28.046875 32.265625 C 23.234375 27.773438 19.644531 22.71875 17.28125 17.09375 C 14.914062 11.476562 13.609375 5.738281 13.359375 -0.125 L 40.828125 -0.125 C 41.703125 4.207031 43.300781 8.0625 45.625 11.4375 C 47.957031 14.8125 51.390625 17.476562 55.921875 19.4375 C 60.460938 21.40625 66.382812 22.390625 73.6875 22.390625 C 80.4375 22.390625 86.175781 21.425781 90.90625 19.5 C 95.644531 17.582031 99.5 14.9375 102.46875 11.5625 C 105.4375 8.1875 107.601562 4.3125 108.96875 -0.0625 C 110.332031 -4.4375 111.015625 -9.03125 111.015625 -13.84375 L 111.015625 -26.484375 C 106.847656 -18.378906 100.96875 -12.441406 93.375 -8.671875 C 85.789062 -4.898438 77.382812 -3.015625 68.15625 -3.015625 C 59.40625 -3.015625 51.359375 -4.617188 44.015625 -7.828125 C 36.671875 -11.035156 30.347656 -15.445312 25.046875 -21.0625 C 19.742188 -26.6875 15.628906 -33.210938 12.703125 -40.640625 C 9.773438 -48.066406 8.3125 -55.992188 8.3125 -64.421875 C 8.3125 -72.847656 9.753906 -80.832031 12.640625 -88.375 C 15.535156 -95.925781 19.609375 -102.648438 24.859375 -108.546875 C 30.117188 -114.453125 36.34375 -119.085938 43.53125 -122.453125 C 50.71875 -125.828125 58.601562 -127.515625 67.1875 -127.515625 C 74.570312 -127.515625 81.175781 -126.332031 87 -123.96875 C 92.820312 -121.601562 97.757812 -118.53125 101.8125 -114.75 C 105.863281 -110.976562 108.972656 -106.96875 111.140625 -102.71875 L 111.140625 -123.78125 L 138.84375 -123.78125 L 138.84375 -14.203125 C 138.84375 -5.535156 137.4375 2.507812 134.625 9.9375 C 131.8125 17.363281 127.632812 23.84375 122.09375 29.375 C 116.5625 34.914062 109.757812 39.234375 101.6875 42.328125 C 93.625 45.421875 84.332031 46.96875 73.8125 46.96875 Z M 73.578125 -28.296875 C 78.628906 -28.296875 83.363281 -29.238281 87.78125 -31.125 C 92.195312 -33.007812 96.070312 -35.640625 99.40625 -39.015625 C 102.738281 -42.390625 105.328125 -46.265625 107.171875 -50.640625 C 109.015625 -55.015625 109.9375 -59.648438 109.9375 -64.546875 C 109.9375 -69.359375 109.015625 -73.929688 107.171875 -78.265625 C 105.328125 -82.597656 102.757812 -86.429688 99.46875 -89.765625 C 96.175781 -93.097656 92.320312 -95.726562 87.90625 -97.65625 C 83.488281 -99.582031 78.710938 -100.546875 73.578125 -100.546875 C 66.753906 -100.546875 60.59375 -99.019531 55.09375 -95.96875 C 49.59375 -92.914062 45.234375 -88.703125 42.015625 -83.328125 C 38.804688 -77.953125 37.203125 -71.691406 37.203125 -64.546875 C 37.203125 -57.554688 38.804688 -51.332031 42.015625 -45.875 C 45.234375 -40.414062 49.59375 -36.117188 55.09375 -32.984375 C 60.59375 -29.859375 66.753906 -28.296875 73.578125 -28.296875 Z M 73.578125 -28.296875 "/></g></g></g><g fill="#000000" fill-opacity="1"><g transform="translate(785.468818, 812.999958)"><g><path d="M 46.234375 0 L 17.09375 0 L 17.09375 -123.78125 L 45.03125 -123.78125 L 45.03125 -101.390625 C 47.925781 -108.210938 52.179688 -113.648438 57.796875 -117.703125 C 63.421875 -121.753906 70.242188 -123.78125 78.265625 -123.78125 L 91.515625 -123.78125 L 91.515625 -98.734375 L 79.828125 -98.734375 C 73.171875 -98.734375 67.3125 -97.128906 62.25 -93.921875 C 57.195312 -90.710938 53.265625 -86.054688 50.453125 -79.953125 C 47.640625 -73.847656 46.234375 -66.382812 46.234375 -57.5625 Z M 46.234375 0 "/></g></g></g><g fill="#000000" fill-opacity="1"><g transform="translate(866.412643, 812.999958)"><g><path d="M 73.328125 3.734375 C 63.941406 3.734375 55.273438 2.050781 47.328125 -1.3125 C 39.378906 -4.6875 32.492188 -9.382812 26.671875 -15.40625 C 20.847656 -21.425781 16.332031 -28.410156 13.125 -36.359375 C 9.914062 -44.304688 8.3125 -52.816406 8.3125 -61.890625 C 8.3125 -70.960938 9.914062 -79.453125 13.125 -87.359375 C 16.332031 -95.265625 20.847656 -102.226562 26.671875 -108.25 C 32.492188 -114.269531 39.378906 -118.984375 47.328125 -122.390625 C 55.273438 -125.804688 63.984375 -127.515625 73.453125 -127.515625 C 83.003906 -127.515625 91.753906 -125.804688 99.703125 -122.390625 C 107.648438 -118.984375 114.550781 -114.269531 120.40625 -108.25 C 126.269531 -102.226562 130.804688 -95.265625 134.015625 -87.359375 C 137.234375 -79.453125 138.84375 -70.960938 138.84375 -61.890625 C 138.84375 -52.742188 137.234375 -44.210938 134.015625 -36.296875 C 130.804688 -28.390625 126.269531 -21.425781 120.40625 -15.40625 C 114.550781 -9.382812 107.628906 -4.6875 99.640625 -1.3125 C 91.648438 2.050781 82.878906 3.734375 73.328125 3.734375 Z M 73.578125 -23.359375 C 80.554688 -23.359375 86.773438 -25.023438 92.234375 -28.359375 C 97.691406 -31.691406 102.003906 -36.242188 105.171875 -42.015625 C 108.347656 -47.796875 109.9375 -54.421875 109.9375 -61.890625 C 109.9375 -69.359375 108.347656 -76 105.171875 -81.8125 C 102.003906 -87.632812 97.691406 -92.210938 92.234375 -95.546875 C 86.773438 -98.878906 80.554688 -100.546875 73.578125 -100.546875 C 66.671875 -100.546875 60.46875 -98.878906 54.96875 -95.546875 C 49.46875 -92.210938 45.128906 -87.632812 41.953125 -81.8125 C 38.785156 -76 37.203125 -69.359375 37.203125 -61.890625 C 37.203125 -54.421875 38.785156 -47.796875 41.953125 -42.015625 C 45.128906 -36.242188 49.46875 -31.691406 54.96875 -28.359375 C 60.46875 -25.023438 66.671875 -23.359375 73.578125 -23.359375 Z M 73.578125 -23.359375 "/></g></g></g><g fill="#000000" fill-opacity="1"><g transform="translate(999.254822, 812.999958)"><g><path d="M 69.125 0 L 42.875 0 L 1.203125 -123.78125 L 32.515625 -123.78125 L 56.71875 -45.28125 L 58.875 -37.9375 L 59.25 -37.9375 L 61.53125 -45.28125 L 85.015625 -123.78125 L 106.5625 -123.78125 L 129.203125 -46.125 L 131.734375 -37.9375 L 132.09375 -37.9375 L 134.984375 -46.59375 L 159.1875 -123.78125 L 189.890625 -123.78125 L 148.109375 0 L 121.140625 0 L 95.375 -80.203125 L 95.25 -80.203125 Z M 69.125 0 "/></g></g></g><g fill="#000000" fill-opacity="1"><g transform="translate(1175.927642, 812.999958)"><g><path d="M 93.203125 0 L 68.03125 0 C 64.34375 0 60.550781 -0.335938 56.65625 -1.015625 C 52.757812 -1.703125 49.046875 -2.96875 45.515625 -4.8125 C 41.984375 -6.664062 38.832031 -9.335938 36.0625 -12.828125 C 33.289062 -16.316406 31.082031 -20.847656 29.4375 -26.421875 C 27.789062 -32.003906 26.96875 -38.890625 26.96875 -47.078125 L 26.96875 -98.734375 L 1.328125 -98.734375 L 1.328125 -123.78125 L 26.96875 -123.78125 L 26.96875 -160.03125 L 56.109375 -160.265625 L 56.109375 -123.78125 L 93.203125 -123.78125 L 93.203125 -98.734375 L 56.109375 -98.734375 L 56.109375 -45.75 C 56.109375 -39.976562 56.953125 -35.523438 58.640625 -32.390625 C 60.328125 -29.265625 62.554688 -27.117188 65.328125 -25.953125 C 68.097656 -24.785156 71.007812 -24.203125 74.0625 -24.203125 L 93.203125 -24.203125 Z M 93.203125 0 "/></g></g></g><g fill="#000000" fill-opacity="1"><g transform="translate(1261.326835, 812.999958)"><g><path d="M 46.234375 0 L 17.09375 0 L 17.09375 -169.546875 L 46.234375 -169.546875 L 46.234375 -119.09375 L 45.515625 -105.25 C 49.367188 -111.988281 54.882812 -117.382812 62.0625 -121.4375 C 69.25 -125.488281 77.582031 -127.515625 87.0625 -127.515625 C 103.675781 -127.515625 116.117188 -122.234375 124.390625 -111.671875 C 132.660156 -101.117188 136.796875 -86.128906 136.796875 -66.703125 L 136.796875 0 L 107.65625 0 L 107.65625 -66.109375 C 107.65625 -78.390625 105.082031 -87.21875 99.9375 -92.59375 C 94.800781 -97.976562 87.816406 -100.671875 78.984375 -100.671875 C 74.734375 -100.671875 70.640625 -99.765625 66.703125 -97.953125 C 62.773438 -96.148438 59.265625 -93.601562 56.171875 -90.3125 C 53.078125 -87.019531 50.644531 -83.066406 48.875 -78.453125 C 47.113281 -73.835938 46.234375 -68.757812 46.234375 -63.21875 Z M 46.234375 0 "/></g></g></g></svg>