<svg xmlns="http://www.w3.org/2000/svg" xmlns:xlink="http://www.w3.org/1999/xlink" viewBox="80 580 1320 340" preserveAspectRatio="xMidYMid meet" version="1.0"><defs><g/><clipPath id="a2b2d16f6e"><path d="M 94.777344 588.800781 L 417.277344 588.800781 L 417.277344 911.300781 L 94.777344 911.300781 Z M 94.777344 588.800781 " clip-rule="nonzero"/></clipPath><clipPath id="7d8f6c6b9b"><rect x="0" width="946" y="0" height="220"/></clipPath></defs><g clip-path="url(#a2b2d16f6e)"><path fill="#e5251b" d="M 181.601562 588.800781 L 330.449219 588.800781 C 331.871094 588.800781 333.289062 588.835938 334.710938 588.90625 C 336.128906 588.976562 337.546875 589.082031 338.960938 589.222656 C 340.375 589.359375 341.785156 589.535156 343.191406 589.742188 C 344.59375 589.949219 345.996094 590.195312 347.386719 590.472656 C 348.78125 590.75 350.167969 591.058594 351.546875 591.40625 C 352.925781 591.75 354.292969 592.128906 355.652344 592.542969 C 357.015625 592.953125 358.363281 593.398438 359.699219 593.878906 C 361.039062 594.355469 362.363281 594.867188 363.675781 595.410156 C 364.988281 595.957031 366.289062 596.53125 367.574219 597.140625 C 368.855469 597.746094 370.125 598.386719 371.378906 599.054688 C 372.632812 599.726562 373.867188 600.425781 375.085938 601.15625 C 376.304688 601.886719 377.507812 602.644531 378.6875 603.4375 C 379.871094 604.226562 381.03125 605.042969 382.171875 605.890625 C 383.3125 606.734375 384.433594 607.609375 385.53125 608.511719 C 386.628906 609.414062 387.707031 610.339844 388.757812 611.296875 C 389.8125 612.25 390.839844 613.230469 391.84375 614.234375 C 392.851562 615.238281 393.828125 616.265625 394.785156 617.320312 C 395.738281 618.375 396.667969 619.449219 397.566406 620.546875 C 398.46875 621.644531 399.34375 622.765625 400.1875 623.90625 C 401.035156 625.046875 401.855469 626.210938 402.644531 627.390625 C 403.433594 628.574219 404.191406 629.773438 404.921875 630.992188 C 405.652344 632.210938 406.355469 633.445312 407.023438 634.699219 C 407.695312 635.953125 408.332031 637.222656 408.941406 638.507812 C 409.546875 639.789062 410.125 641.089844 410.667969 642.402344 C 411.210938 643.714844 411.722656 645.039062 412.199219 646.378906 C 412.679688 647.714844 413.125 649.066406 413.539062 650.425781 C 413.949219 651.785156 414.328125 653.152344 414.675781 654.53125 C 415.019531 655.910156 415.332031 657.296875 415.609375 658.691406 C 415.886719 660.085938 416.128906 661.484375 416.335938 662.890625 C 416.546875 664.296875 416.71875 665.703125 416.859375 667.117188 C 416.996094 668.535156 417.101562 669.949219 417.171875 671.371094 C 417.242188 672.789062 417.277344 674.207031 417.277344 675.628906 L 417.277344 824.476562 C 417.277344 825.898438 417.242188 827.316406 417.171875 828.734375 C 417.101562 830.15625 416.996094 831.570312 416.859375 832.984375 C 416.71875 834.402344 416.546875 835.808594 416.335938 837.214844 C 416.128906 838.621094 415.886719 840.019531 415.609375 841.414062 C 415.332031 842.808594 415.019531 844.195312 414.675781 845.574219 C 414.328125 846.953125 413.949219 848.320312 413.539062 849.679688 C 413.125 851.039062 412.679688 852.390625 412.199219 853.726562 C 411.722656 855.066406 411.210938 856.390625 410.667969 857.703125 C 410.125 859.015625 409.546875 860.316406 408.941406 861.597656 C 408.332031 862.882812 407.695312 864.152344 407.023438 865.40625 C 406.355469 866.660156 405.652344 867.894531 404.921875 869.113281 C 404.191406 870.332031 403.433594 871.53125 402.644531 872.714844 C 401.855469 873.894531 401.035156 875.058594 400.1875 876.199219 C 399.34375 877.339844 398.46875 878.460938 397.566406 879.558594 C 396.667969 880.65625 395.738281 881.730469 394.785156 882.785156 C 393.828125 883.839844 392.851562 884.867188 391.84375 885.871094 C 390.839844 886.875 389.8125 887.855469 388.757812 888.808594 C 387.707031 889.765625 386.628906 890.691406 385.53125 891.59375 C 384.433594 892.496094 383.3125 893.371094 382.171875 894.214844 C 381.03125 895.0625 379.871094 895.878906 378.6875 896.667969 C 377.507812 897.460938 376.304688 898.21875 375.085938 898.949219 C 373.867188 899.679688 372.632812 900.378906 371.378906 901.050781 C 370.125 901.71875 368.855469 902.359375 367.574219 902.964844 C 366.289062 903.574219 364.988281 904.148438 363.675781 904.691406 C 362.363281 905.238281 361.039062 905.75 359.699219 906.226562 C 358.363281 906.707031 357.015625 907.152344 355.652344 907.5625 C 354.292969 907.976562 352.925781 908.355469 351.546875 908.699219 C 350.167969 909.046875 348.78125 909.355469 347.386719 909.632812 C 345.996094 909.910156 344.59375 910.15625 343.191406 910.363281 C 341.785156 910.570312 340.375 910.746094 338.960938 910.882812 C 337.546875 911.023438 336.128906 911.128906 334.710938 911.199219 C 333.289062 911.269531 331.871094 911.300781 330.449219 911.300781 L 181.601562 911.300781 C 180.183594 911.300781 178.761719 911.269531 177.34375 911.199219 C 175.921875 911.128906 174.507812 911.023438 173.09375 910.882812 C 171.679688 910.746094 170.269531 910.570312 168.863281 910.363281 C 167.457031 910.15625 166.058594 909.910156 164.664062 909.632812 C 163.269531 909.355469 161.882812 909.046875 160.507812 908.699219 C 159.128906 908.355469 157.757812 907.976562 156.398438 907.5625 C 155.039062 907.152344 153.691406 906.707031 152.351562 906.226562 C 151.015625 905.75 149.6875 905.238281 148.375 904.695312 C 147.0625 904.148438 145.765625 903.574219 144.480469 902.964844 C 143.195312 902.359375 141.925781 901.71875 140.671875 901.050781 C 139.421875 900.378906 138.183594 899.679688 136.964844 898.949219 C 135.746094 898.21875 134.546875 897.460938 133.363281 896.667969 C 132.183594 895.878906 131.023438 895.0625 129.878906 894.214844 C 128.738281 893.371094 127.621094 892.496094 126.519531 891.59375 C 125.421875 890.691406 124.347656 889.765625 123.292969 888.808594 C 122.242188 887.855469 121.210938 886.875 120.207031 885.871094 C 119.203125 884.867188 118.222656 883.839844 117.269531 882.785156 C 116.316406 881.730469 115.386719 880.65625 114.484375 879.558594 C 113.582031 878.460938 112.710938 877.339844 111.863281 876.199219 C 111.015625 875.058594 110.199219 873.894531 109.410156 872.714844 C 108.621094 871.53125 107.859375 870.332031 107.128906 869.113281 C 106.398438 867.894531 105.699219 866.660156 105.027344 865.40625 C 104.359375 864.152344 103.71875 862.882812 103.113281 861.597656 C 102.503906 860.316406 101.929688 859.015625 101.386719 857.703125 C 100.84375 856.390625 100.332031 855.066406 99.851562 853.726562 C 99.375 852.390625 98.925781 851.039062 98.515625 849.679688 C 98.101562 848.320312 97.722656 846.953125 97.378906 845.574219 C 97.035156 844.195312 96.722656 842.808594 96.445312 841.414062 C 96.167969 840.019531 95.925781 838.621094 95.714844 837.214844 C 95.507812 835.808594 95.332031 834.402344 95.195312 832.984375 C 95.054688 831.570312 94.949219 830.15625 94.882812 828.734375 C 94.8125 827.316406 94.777344 825.898438 94.777344 824.476562 L 94.777344 675.628906 C 94.777344 674.207031 94.8125 672.789062 94.882812 671.371094 C 94.949219 669.949219 95.054688 668.535156 95.195312 667.117188 C 95.332031 665.703125 95.507812 664.296875 95.714844 662.890625 C 95.925781 661.484375 96.167969 660.085938 96.445312 658.691406 C 96.722656 657.296875 97.035156 655.910156 97.378906 654.53125 C 97.722656 653.152344 98.101562 651.785156 98.515625 650.425781 C 98.925781 649.066406 99.375 647.714844 99.851562 646.378906 C 100.332031 645.039062 100.84375 643.714844 101.386719 642.402344 C 101.929688 641.089844 102.503906 639.789062 103.113281 638.507812 C 103.71875 637.222656 104.359375 635.953125 105.027344 634.699219 C 105.699219 633.445312 106.398438 632.210938 107.128906 630.992188 C 107.859375 629.773438 108.621094 628.574219 109.410156 627.390625 C 110.199219 626.210938 111.015625 625.046875 111.863281 623.90625 C 112.710938 622.765625 113.582031 621.644531 114.484375 620.546875 C 115.386719 619.449219 116.316406 618.375 117.269531 617.320312 C 118.222656 616.265625 119.203125 615.238281 120.207031 614.234375 C 121.210938 613.230469 122.242188 612.25 123.292969 611.296875 C 124.347656 610.339844 125.421875 609.414062 126.519531 608.511719 C 127.621094 607.609375 128.738281 606.734375 129.878906 605.890625 C 131.023438 605.042969 132.183594 604.226562 133.363281 603.4375 C 134.546875 602.644531 135.746094 601.886719 136.964844 601.15625 C 138.183594 600.425781 139.421875 599.726562 140.671875 599.054688 C 141.925781 598.386719 143.195312 597.746094 144.480469 597.140625 C 145.765625 596.53125 147.0625 595.957031 148.375 595.410156 C 149.6875 594.867188 151.015625 594.355469 152.351562 593.878906 C 153.691406 593.398438 155.039062 592.953125 156.398438 592.542969 C 157.757812 592.128906 159.128906 591.75 160.507812 591.40625 C 161.882812 591.058594 163.269531 590.75 164.664062 590.472656 C 166.058594 590.195312 167.457031 589.949219 168.863281 589.742188 C 170.269531 589.535156 171.679688 589.359375 173.09375 589.222656 C 174.507812 589.082031 175.921875 588.976562 177.34375 588.90625 C 178.761719 588.835938 180.183594 588.800781 181.601562 588.800781 Z M 181.601562 588.800781 " fill-opacity="1" fill-rule="nonzero"/></g><path fill="#ffffff" d="M 324.246094 715.320312 C 323.792969 713.660156 323.132812 712.085938 322.265625 710.597656 C 321.402344 709.109375 320.359375 707.753906 319.140625 706.535156 C 317.921875 705.316406 316.570312 704.277344 315.082031 703.410156 C 313.589844 702.546875 312.015625 701.886719 310.355469 701.429688 C 298.199219 697.957031 256.027344 697.957031 256.027344 697.957031 C 256.027344 697.957031 213.851562 697.957031 201.699219 701.675781 C 200.050781 702.121094 198.488281 702.769531 197.007812 703.617188 C 195.527344 704.460938 194.179688 705.484375 192.964844 706.679688 C 191.746094 707.875 190.699219 709.203125 189.828125 710.667969 C 188.953125 712.132812 188.277344 713.683594 187.804688 715.320312 C 185.601562 726.796875 184.363281 738.371094 184.085938 750.050781 C 184.363281 761.734375 185.601562 773.308594 187.804688 784.785156 C 188.261719 786.445312 188.921875 788.019531 189.785156 789.507812 C 190.652344 790.996094 191.695312 792.351562 192.910156 793.570312 C 194.128906 794.789062 195.484375 795.828125 196.972656 796.695312 C 198.460938 797.558594 200.035156 798.21875 201.699219 798.675781 C 213.851562 802.148438 256.027344 802.148438 256.027344 802.148438 C 256.027344 802.148438 298.199219 802.148438 310.355469 798.429688 C 312.015625 797.972656 313.589844 797.3125 315.082031 796.445312 C 316.570312 795.582031 317.921875 794.539062 319.140625 793.320312 C 320.359375 792.101562 321.402344 790.75 322.265625 789.261719 C 323.132812 787.773438 323.792969 786.195312 324.246094 784.535156 C 326.4375 773.144531 327.675781 761.648438 327.96875 750.050781 C 327.691406 738.371094 326.449219 726.796875 324.246094 715.320312 Z M 324.246094 715.320312 " fill-opacity="1" fill-rule="nonzero"/><path fill="#e5251b" d="M 233.699219 787.265625 L 293.238281 750.050781 L 233.699219 712.839844 Z M 233.699219 787.265625 " fill-opacity="1" fill-rule="nonzero"/><g transform="matrix(1, 0, 0, 1, 442, 640)"><g clip-path="url(#7d8f6c6b9b)"><g fill="#000000" fill-opacity="1"><g transform="translate(0.0918019, 171.49991)"><g><path d="M 26.375 41.90625 L 6.140625 41.90625 L 6.140625 24.4375 L 26.484375 24.4375 C 31.460938 24.4375 35.476562 23.550781 38.53125 21.78125 C 41.582031 20.019531 44.171875 17.3125 46.296875 13.65625 C 48.421875 10.007812 50.53125 5.414062 52.625 -0.125 L 53.9375 -3.609375 L 5.171875 -122.8125 L 27.21875 -122.8125 L 62.015625 -36 L 64.90625 -25.171875 L 68.03125 -35.875 L 102.59375 -122.6875 L 124.625 -122.8125 L 76.21875 -3.375 C 72.769531 5.289062 69.457031 12.535156 66.28125 18.359375 C 63.113281 24.179688 59.722656 28.816406 56.109375 32.265625 C 52.492188 35.722656 48.296875 38.191406 43.515625 39.671875 C 38.742188 41.160156 33.03125 41.90625 26.375 41.90625 Z M 26.375 41.90625 "/></g></g></g><g fill="#000000" fill-opacity="1"><g transform="translate(111.958981, 171.49991)"><g><path d="M 89.9375 0 L 67.3125 0 C 62.65625 0 58.035156 -0.597656 53.453125 -1.796875 C 48.878906 -3.003906 44.726562 -5.210938 41 -8.421875 C 37.269531 -11.640625 34.28125 -16.238281 32.03125 -22.21875 C 29.78125 -28.195312 28.65625 -35.960938 28.65625 -45.515625 L 28.65625 -104.640625 L 1.328125 -104.640625 L 1.328125 -122.8125 L 28.65625 -122.8125 L 28.65625 -159.296875 L 49.359375 -159.421875 L 49.359375 -122.8125 L 89.9375 -122.8125 L 89.9375 -104.640625 L 49.359375 -104.640625 L 49.359375 -44.546875 C 49.359375 -38.847656 49.976562 -34.210938 51.21875 -30.640625 C 52.46875 -27.066406 54.15625 -24.335938 56.28125 -22.453125 C 58.414062 -20.566406 60.785156 -19.28125 63.390625 -18.59375 C 66.003906 -17.914062 68.675781 -17.578125 71.40625 -17.578125 L 89.9375 -17.578125 Z M 89.9375 0 "/></g></g></g><g fill="#000000" fill-opacity="1"><g transform="translate(194.45055, 171.49991)"><g><path d="M 73.6875 46.234375 C 63.332031 46.234375 54.503906 44.925781 47.203125 42.3125 C 39.898438 39.707031 33.898438 36.21875 29.203125 31.84375 C 24.503906 27.46875 20.988281 22.59375 18.65625 17.21875 C 16.332031 11.84375 15.007812 6.34375 14.6875 0.71875 L 34.3125 0.71875 C 35.113281 5.613281 36.898438 10.1875 39.671875 14.4375 C 42.441406 18.695312 46.578125 22.109375 52.078125 24.671875 C 57.578125 27.242188 64.78125 28.53125 73.6875 28.53125 C 81.632812 28.53125 88.394531 27.304688 93.96875 24.859375 C 99.550781 22.410156 104.066406 19.078125 107.515625 14.859375 C 110.972656 10.648438 113.503906 5.894531 115.109375 0.59375 C 116.710938 -4.695312 117.515625 -10.191406 117.515625 -15.890625 L 117.515625 -31.0625 C 114.628906 -24.882812 110.773438 -19.644531 105.953125 -15.34375 C 101.140625 -11.050781 95.660156 -7.800781 89.515625 -5.59375 C 83.378906 -3.382812 76.820312 -2.28125 69.84375 -2.28125 C 61.164062 -2.28125 53.175781 -3.863281 45.875 -7.03125 C 38.570312 -10.207031 32.191406 -14.625 26.734375 -20.28125 C 21.273438 -25.945312 17.039062 -32.488281 14.03125 -39.90625 C 11.019531 -47.332031 9.515625 -55.265625 9.515625 -63.703125 C 9.515625 -72.128906 11 -80.09375 13.96875 -87.59375 C 16.9375 -95.101562 21.128906 -101.742188 26.546875 -107.515625 C 31.960938 -113.296875 38.300781 -117.851562 45.5625 -121.1875 C 52.832031 -124.519531 60.722656 -126.1875 69.234375 -126.1875 C 77.097656 -126.1875 84.203125 -124.84375 90.546875 -122.15625 C 96.890625 -119.46875 102.367188 -115.875 106.984375 -111.375 C 111.597656 -106.882812 115.109375 -101.910156 117.515625 -96.453125 L 117.515625 -122.8125 L 137.390625 -122.8125 L 137.390625 -16.5 C 137.390625 -7.988281 136.082031 0.0546875 133.46875 7.640625 C 130.863281 15.234375 126.929688 21.914062 121.671875 27.6875 C 116.410156 33.46875 109.785156 38.003906 101.796875 41.296875 C 93.816406 44.585938 84.445312 46.234375 73.6875 46.234375 Z M 73.453125 -20.59375 C 79.472656 -20.59375 85.109375 -21.710938 90.359375 -23.953125 C 95.617188 -26.203125 100.210938 -29.3125 104.140625 -33.28125 C 108.078125 -37.257812 111.171875 -41.859375 113.421875 -47.078125 C 115.671875 -52.296875 116.796875 -57.835938 116.796875 -63.703125 C 116.796875 -69.554688 115.691406 -75.070312 113.484375 -80.25 C 111.273438 -85.425781 108.179688 -90 104.203125 -93.96875 C 100.234375 -97.945312 95.640625 -101.078125 90.421875 -103.359375 C 85.203125 -105.648438 79.582031 -106.796875 73.5625 -106.796875 C 67.539062 -106.796875 61.898438 -105.710938 56.640625 -103.546875 C 51.390625 -101.378906 46.773438 -98.347656 42.796875 -94.453125 C 38.828125 -90.566406 35.71875 -86.015625 33.46875 -80.796875 C 31.226562 -75.578125 30.109375 -69.878906 30.109375 -63.703125 C 30.109375 -57.597656 31.226562 -51.9375 33.46875 -46.71875 C 35.71875 -41.5 38.804688 -36.921875 42.734375 -32.984375 C 46.671875 -29.054688 51.269531 -26.007812 56.53125 -23.84375 C 61.789062 -21.675781 67.429688 -20.59375 73.453125 -20.59375 Z M 73.453125 -20.59375 "/></g></g></g><g fill="#000000" fill-opacity="1"><g transform="translate(337.378821, 171.49991)"><g><path d="M 40.703125 0 L 19.859375 0 L 19.859375 -122.8125 L 39.859375 -122.8125 L 39.859375 -95.359375 C 42.910156 -103.867188 47.664062 -110.570312 54.125 -115.46875 C 60.582031 -120.363281 68.269531 -122.8125 77.1875 -122.8125 L 89.09375 -122.8125 L 89.09375 -104.640625 L 78.265625 -104.640625 C 71.117188 -104.640625 64.695312 -102.789062 59 -99.09375 C 53.300781 -95.40625 48.828125 -90.066406 45.578125 -83.078125 C 42.328125 -76.097656 40.703125 -67.671875 40.703125 -57.796875 Z M 40.703125 0 "/></g></g></g><g fill="#000000" fill-opacity="1"><g transform="translate(416.499419, 171.49991)"><g><path d="M 73.328125 3.484375 C 64.253906 3.484375 55.84375 1.820312 48.09375 -1.5 C 40.351562 -4.832031 33.59375 -9.46875 27.8125 -15.40625 C 22.03125 -21.351562 17.535156 -28.257812 14.328125 -36.125 C 11.117188 -43.988281 9.515625 -52.414062 9.515625 -61.40625 C 9.515625 -70.394531 11.117188 -78.800781 14.328125 -86.625 C 17.535156 -94.457031 22.007812 -101.34375 27.75 -107.28125 C 33.488281 -113.21875 40.226562 -117.875 47.96875 -121.25 C 55.71875 -124.625 64.171875 -126.3125 73.328125 -126.3125 C 82.472656 -126.3125 90.9375 -124.644531 98.71875 -121.3125 C 106.507812 -117.976562 113.296875 -113.34375 119.078125 -107.40625 C 124.859375 -101.46875 129.351562 -94.5625 132.5625 -86.6875 C 135.78125 -78.820312 137.390625 -70.394531 137.390625 -61.40625 C 137.390625 -52.414062 135.78125 -43.988281 132.5625 -36.125 C 129.351562 -28.257812 124.859375 -21.351562 119.078125 -15.40625 C 113.296875 -9.46875 106.507812 -4.832031 98.71875 -1.5 C 90.9375 1.820312 82.472656 3.484375 73.328125 3.484375 Z M 73.5625 -16.015625 C 79.664062 -16.015625 85.328125 -17.132812 90.546875 -19.375 C 95.765625 -21.625 100.335938 -24.796875 104.265625 -28.890625 C 108.203125 -32.984375 111.253906 -37.800781 113.421875 -43.34375 C 115.585938 -48.882812 116.671875 -54.90625 116.671875 -61.40625 C 116.671875 -67.90625 115.585938 -73.90625 113.421875 -79.40625 C 111.253906 -84.90625 108.203125 -89.703125 104.265625 -93.796875 C 100.335938 -97.890625 95.765625 -101.078125 90.546875 -103.359375 C 85.328125 -105.648438 79.664062 -106.796875 73.5625 -106.796875 C 67.46875 -106.796875 61.789062 -105.648438 56.53125 -103.359375 C 51.269531 -101.078125 46.671875 -97.890625 42.734375 -93.796875 C 38.804688 -89.703125 35.738281 -84.90625 33.53125 -79.40625 C 31.320312 -73.90625 30.21875 -67.90625 30.21875 -61.40625 C 30.21875 -54.90625 31.320312 -48.882812 33.53125 -43.34375 C 35.738281 -37.800781 38.804688 -32.984375 42.734375 -28.890625 C 46.671875 -24.796875 51.269531 -21.625 56.53125 -19.375 C 61.789062 -17.132812 67.46875 -16.015625 73.5625 -16.015625 Z M 73.5625 -16.015625 "/></g></g></g><g fill="#000000" fill-opacity="1"><g transform="translate(549.073992, 171.49991)"><g><path d="M 62.859375 0 L 43.828125 0 L 1.5625 -122.8125 L 23.84375 -122.8125 L 52.984375 -34.078125 L 55.265625 -26.734375 L 55.5 -26.734375 L 57.921875 -33.953125 L 85.84375 -122.8125 L 101.75 -122.8125 L 128.828125 -35.515625 L 131.609375 -26.734375 L 131.96875 -26.734375 L 135.21875 -35.875 L 163.75 -122.8125 L 185.671875 -122.8125 L 143.40625 0 L 123.90625 0 L 93.5625 -91.984375 L 93.4375 -91.984375 Z M 62.859375 0 "/></g></g></g><g fill="#000000" fill-opacity="1"><g transform="translate(721.979829, 171.49991)"><g><path d="M 89.9375 0 L 67.3125 0 C 62.65625 0 58.035156 -0.597656 53.453125 -1.796875 C 48.878906 -3.003906 44.726562 -5.210938 41 -8.421875 C 37.269531 -11.640625 34.28125 -16.238281 32.03125 -22.21875 C 29.78125 -28.195312 28.65625 -35.960938 28.65625 -45.515625 L 28.65625 -104.640625 L 1.328125 -104.640625 L 1.328125 -122.8125 L 28.65625 -122.8125 L 28.65625 -159.296875 L 49.359375 -159.421875 L 49.359375 -122.8125 L 89.9375 -122.8125 L 89.9375 -104.640625 L 49.359375 -104.640625 L 49.359375 -44.546875 C 49.359375 -38.847656 49.976562 -34.210938 51.21875 -30.640625 C 52.46875 -27.066406 54.15625 -24.335938 56.28125 -22.453125 C 58.414062 -20.566406 60.785156 -19.28125 63.390625 -18.59375 C 66.003906 -17.914062 68.675781 -17.578125 71.40625 -17.578125 L 89.9375 -17.578125 Z M 89.9375 0 "/></g></g></g><g fill="#000000" fill-opacity="1"><g transform="translate(804.471398, 171.49991)"><g><path d="M 40.578125 0 L 19.859375 0 L 19.859375 -169.53125 L 40.578125 -169.53125 L 40.578125 -112.578125 L 40.21875 -99.453125 C 42.707031 -104.753906 46.117188 -109.429688 50.453125 -113.484375 C 54.785156 -117.535156 59.898438 -120.6875 65.796875 -122.9375 C 71.703125 -125.1875 78.101562 -126.3125 85 -126.3125 C 101.300781 -126.3125 113.664062 -121.269531 122.09375 -111.1875 C 130.519531 -101.113281 134.734375 -86.242188 134.734375 -66.578125 L 134.734375 0 L 114.03125 0 L 114.03125 -66.21875 C 114.03125 -80.351562 110.976562 -90.671875 104.875 -97.171875 C 98.769531 -103.671875 90.378906 -106.921875 79.703125 -106.921875 C 74.566406 -106.921875 69.648438 -105.894531 64.953125 -103.84375 C 60.265625 -101.800781 56.09375 -98.894531 52.4375 -95.125 C 48.78125 -91.351562 45.890625 -86.878906 43.765625 -81.703125 C 41.640625 -76.523438 40.578125 -70.800781 40.578125 -64.53125 Z M 40.578125 0 "/></g></g></g></g></g></svg>